<svg xmlns="http://www.w3.org/2000/svg" viewBox="0 0 222.95 238.54"><defs><style>.cls-1{opacity:0.9;}.cls-2{fill:#f5f5f5;}</style></defs><g id="Capa_2" data-name="Capa 2"><g id="Capa_1-2" data-name="Capa 1"><g class="cls-1"><path class="cls-2" d="M187.07,19.14c-21-24.74-36.8-20.48-58.48-14.54C119,7.22,109.25,9.9,98.76,9.9S78,7.1,69,4.63C46.87-1.46,30.92-5.82,9.33,20.44c-10.18,12.39-12,40.8-5.55,77A306.15,306.15,0,0,0,15,140.14c2.39,7.19,5.27,15.64,8,23.16A210.45,210.45,0,0,1,187.07,19.14Z"/><path class="cls-2" d="M188.2,20.44c10.17,12.37,12,40.73,5.57,76.83A308,308,0,0,1,182.6,140c-4.35,13.1-10.36,30.48-14.21,38.63C157,202.78,147.22,212.24,144.74,213c-5.52,0-8.55-20.61-10.35-32.93-3.59-24.39-8-54.73-35.63-54.73s-32,30.33-35.62,54.74c-1.8,12.31-4.83,32.92-9.9,33-2.94-.8-12.7-10.26-24.1-34.4C27.42,175,25.25,169.45,23,163.3a209.66,209.66,0,0,0-7.2,31.4,28.9,28.9,0,0,0,4.87,20.63c10.64,15.35,21.39,23.21,32.12,23.21,27.58,0,32-30.36,35.62-54.75,1.81-12.31,4.84-32.91,10.35-32.91s8.55,20.6,10.36,32.93c3.58,24.39,8,54.73,35.62,54.73,15.66,0,31.38-16.48,46.74-49,3.49-7.37,10-25.66,14.72-39.58a318.55,318.55,0,0,0,14.37-58.4c2.08-14.77,3.15-30.85,1.74-45.88a30.11,30.11,0,0,0-35-26.59l-.27,0C187.45,19.59,187.82,20,188.2,20.44Z"/></g></g></g></svg>