<svg xmlns="http://www.w3.org/2000/svg" viewBox="0 0 493.77 129.17"><defs><style>.cls-1{fill:#212323;}.cls-2{fill:#bcbcbb;}.cls-3{fill:#222323;}</style></defs><g id="Capa_2" data-name="Capa 2"><g id="Layer_1" data-name="Layer 1"><path class="cls-1" d="M174.92,64.36H151.16l-3.93,9.2H136.09l21.31-52h11.21L154.88,55.08h16.25l-7.35-17.82,8.39-7.2,17.75,43.5H178.78Z"/><path class="cls-1" d="M213.75,36a18.76,18.76,0,0,1,7.42,1.48,19,19,0,0,1,6.09,4.09,19.74,19.74,0,0,1,4.12,6.08,18.9,18.9,0,0,1,0,14.85,19.67,19.67,0,0,1-4.12,6.09,19.17,19.17,0,0,1-6.09,4.08,18.77,18.77,0,0,1-7.42,1.49q-7.65,0-11.66-5.65v5h-9.8v-52h9.87V55.08a10,10,0,0,0,.82,4,10.84,10.84,0,0,0,2.19,3.23,10.66,10.66,0,0,0,3.27,2.19,10.16,10.16,0,0,0,4,.81,10,10,0,0,0,4-.81,10.27,10.27,0,0,0,5.45-5.42,10.21,10.21,0,0,0,0-8,10.79,10.79,0,0,0-2.19-3.27,9.56,9.56,0,0,0-3.26-2.19,10.38,10.38,0,0,0-4-.78,10.69,10.69,0,0,0-4,.82l-.07.07-.07-.14-3.64-6.69.07-.07A14.24,14.24,0,0,1,213.75,36Z"/><path class="cls-1" d="M276.48,36.44V73.56h-9.73V55a9.8,9.8,0,0,0-.82-4,10.37,10.37,0,0,0-5.6-5.47,10.34,10.34,0,0,0-4-.79,9.72,9.72,0,0,0-4,.83A11.36,11.36,0,0,0,249,47.7,9.82,9.82,0,0,0,246.78,51,10.09,10.09,0,0,0,246,55a9.64,9.64,0,0,0,.82,4A10.46,10.46,0,0,0,249,62.27a11.09,11.09,0,0,0,3.31,2.23,9.72,9.72,0,0,0,4,.82,8.77,8.77,0,0,0,3.93-.81h.08v.14l3.71,6.61-.08.08a14.21,14.21,0,0,1-9,2.82,18.73,18.73,0,0,1-7.42-1.49,19.06,19.06,0,0,1-6.09-4.08,19.5,19.5,0,0,1-4.12-6.09,18.25,18.25,0,0,1-1.52-7.42,18.49,18.49,0,0,1,1.52-7.5A19.41,19.41,0,0,1,247.6,37.37,18.41,18.41,0,0,1,255,35.85a15,15,0,0,1,6.76,1.44,14.07,14.07,0,0,1,5,4.15v-5Z"/><path class="cls-1" d="M321.61,21.6v52h-9.95l.08-18.63a9.32,9.32,0,0,0-.86-3.94,11.13,11.13,0,0,0-2.22-3.22,9.92,9.92,0,0,0-3.27-2.16,10.51,10.51,0,0,0-4.05-.78,10.19,10.19,0,0,0-4,.78,9.63,9.63,0,0,0-3.23,2.19,10.79,10.79,0,0,0-2.19,3.27,10.21,10.21,0,0,0,0,8,10.48,10.48,0,0,0,2.19,3.23,10.6,10.6,0,0,0,3.23,2.19,9.86,9.86,0,0,0,4,.81,14.45,14.45,0,0,0,2.08-.15,5.87,5.87,0,0,0,1.93-.59h.15l3.64,6.68-.07.08a14.12,14.12,0,0,1-8.91,2.82,19.12,19.12,0,0,1-13.59-5.57,19.5,19.5,0,0,1-4.12-6.09,18.9,18.9,0,0,1,0-14.85,19.57,19.57,0,0,1,4.12-6.08A19,19,0,0,1,300.16,36c5,0,8.91,1.88,11.58,5.64v-20Z"/><path class="cls-2" d="M344.55,35.85A18.41,18.41,0,0,1,352,37.37a19.41,19.41,0,0,1,10.21,10.21,18.66,18.66,0,0,1,1.52,7.5,19.64,19.64,0,0,1-.44,4.16l-.08.14H344.33l-4.75-7.57h14.1a11,11,0,0,0-3.45-5.12,8.6,8.6,0,0,0-5.68-2,9.06,9.06,0,0,0-3.79.82,10,10,0,0,0-3.08,2.18,10.13,10.13,0,0,0-2,3.26,11.15,11.15,0,0,0-.74,4.1,10,10,0,0,0,.67,3.51,10.56,10.56,0,0,0,1.93,3.3,11,11,0,0,0,3,2.47,8,8,0,0,0,4,1,11.54,11.54,0,0,0,3.67-.55,6.82,6.82,0,0,0,3.16-2.49l.07-.08.15.08,8.61,3.79-.14.15a18.62,18.62,0,0,1-6.8,5.84,18.91,18.91,0,0,1-8.72,2.1A19.25,19.25,0,0,1,337,72.67a19,19,0,0,1-6.12-4.08,19.5,19.5,0,0,1-4.12-6.09,18.25,18.25,0,0,1-1.52-7.42,18.49,18.49,0,0,1,1.52-7.5A19.32,19.32,0,0,1,337,37.37,18.92,18.92,0,0,1,344.55,35.85Z"/><path class="cls-2" d="M367.42,36.44h10.09V73.56H367.42Zm34.29,4.31a14.17,14.17,0,0,1,2.67,5.79,38.19,38.19,0,0,1,.82,8.61V73.56H395.11V55.1c0-1.38,0-2.71-.12-4a9.11,9.11,0,0,0-.78-3.35,4.91,4.91,0,0,0-2.15-2.27,9,9,0,0,0-4.23-.82A10.72,10.72,0,0,0,383,45.8v.07l-.07-.07-3.64-6.42.08-.07A13.9,13.9,0,0,1,389,35.85Q397.93,35.85,401.71,40.75Z"/><path class="cls-2" d="M423.76,60.87A3.86,3.86,0,0,0,425,63.76,4,4,0,0,0,427.92,65h7.2v8.61h-7.2a13.91,13.91,0,0,1-9.91-4,14.55,14.55,0,0,1-3-4.42,13.31,13.31,0,0,1-1.11-5.42V48.55h-5.35V40.3h5.35V26.87h9.87ZM435.12,40.3v8.25h-5.49L425,40.3Z"/><path class="cls-2" d="M478.7,36.44V73.56H469V55a9.8,9.8,0,0,0-.82-4,10.37,10.37,0,0,0-5.6-5.47,10.34,10.34,0,0,0-4-.79,9.72,9.72,0,0,0-4,.83,11.36,11.36,0,0,0-3.31,2.19A10,10,0,0,0,449,51a10.26,10.26,0,0,0-.82,4.06,9.81,9.81,0,0,0,.82,4,10.63,10.63,0,0,0,2.26,3.28,11.09,11.09,0,0,0,3.31,2.23,9.72,9.72,0,0,0,4,.82,8.77,8.77,0,0,0,3.93-.81h.08v.14l3.71,6.61-.08.08a14.21,14.21,0,0,1-9,2.82,18.73,18.73,0,0,1-7.42-1.49,19.06,19.06,0,0,1-6.09-4.08,19.5,19.5,0,0,1-4.12-6.09,18.25,18.25,0,0,1-1.52-7.42,18.49,18.49,0,0,1,1.52-7.5,19.41,19.41,0,0,1,10.21-10.21,18.41,18.41,0,0,1,7.42-1.52A15,15,0,0,1,464,37.29a14.07,14.07,0,0,1,5,4.15v-5Z"/><path class="cls-2" d="M493.77,21.6v52h-9.88l.08-52Z"/><path class="cls-2" d="M136.69,108.76V88.3H141a15.52,15.52,0,0,1,4.88.61,9.17,9.17,0,0,1,3.49,2,10.58,10.58,0,0,1-.14,15.22,9.63,9.63,0,0,1-3.47,2,15.77,15.77,0,0,1-4.81.57Zm3.09-2.9h1.39a11.65,11.65,0,0,0,3.46-.44,7,7,0,0,0,4.77-6.89,7.1,7.1,0,0,0-2.25-5.46q-2-1.87-6-1.87h-1.39Z"/><path class="cls-2" d="M175.83,91.2h-8.2v4.92h8V99h-8v6.84h8.2v2.9H164.54V88.3h11.29Z"/><path class="cls-2" d="M191.11,100.45v8.31H188V88.3h3.5a15.75,15.75,0,0,1,3.89.36A5.15,5.15,0,0,1,197.74,90a5.83,5.83,0,0,1,1.76,4.34,5.63,5.63,0,0,1-1.88,4.46,7.49,7.49,0,0,1-5.08,1.64Zm0-2.86h1.16q4.24,0,4.25-3.27c0-2.12-1.46-3.17-4.39-3.17h-1Z"/><path class="cls-2" d="M209.8,98.44A10,10,0,0,1,213,91a10.41,10.41,0,0,1,7.58-3.1,10.69,10.69,0,0,1,10.64,10.64A10.05,10.05,0,0,1,228,106a10.82,10.82,0,0,1-14.77.35A10.09,10.09,0,0,1,209.8,98.44Zm3.12,0A7.57,7.57,0,0,0,225.86,104a7.92,7.92,0,0,0,0-11,7.64,7.64,0,0,0-10.77,0A7.38,7.38,0,0,0,212.92,98.48ZM225.2,82.8l-5.41,3.66-1.47-1.24L222.58,81Z"/><path class="cls-2" d="M254.79,91.35l-2.51,1.48a4.31,4.31,0,0,0-1.34-1.59,3.56,3.56,0,0,0-3.84.31,2.23,2.23,0,0,0-.85,1.8c0,1,.74,1.8,2.23,2.41l2,.83a8.77,8.77,0,0,1,3.64,2.46,5.55,5.55,0,0,1,1.15,3.56,6.21,6.21,0,0,1-1.88,4.66,6.44,6.44,0,0,1-4.7,1.86,6.3,6.3,0,0,1-4.4-1.58,7.24,7.24,0,0,1-2.13-4.44l3.12-.69a5.22,5.22,0,0,0,.75,2.5,3.53,3.53,0,0,0,5.18.35,3.36,3.36,0,0,0,.95-2.45,3.42,3.42,0,0,0-.16-1.09,3.12,3.12,0,0,0-.52-.92,4.8,4.8,0,0,0-.91-.78,8.6,8.6,0,0,0-1.33-.69l-2-.82q-4.2-1.78-4.2-5.2a5,5,0,0,1,1.76-3.86,6.39,6.39,0,0,1,4.39-1.56A6.13,6.13,0,0,1,254.79,91.35Z"/><path class="cls-2" d="M270.27,88.3v20.46h-3.09V88.3Z"/><path class="cls-2" d="M289,91.2v17.56h-3.09V91.2h-4.7V88.3h12.48v2.9Z"/><path class="cls-2" d="M302.89,98.44A10,10,0,0,1,306.06,91a10.41,10.41,0,0,1,7.58-3.1,10.69,10.69,0,0,1,10.64,10.64,10.05,10.05,0,0,1-3.15,7.48,10.82,10.82,0,0,1-14.77.35A10.09,10.09,0,0,1,302.89,98.44Zm3.12,0A7.57,7.57,0,0,0,319,104a7.92,7.92,0,0,0,0-11,7.64,7.64,0,0,0-10.77,0A7.38,7.38,0,0,0,306,98.48Z"/><path class="cls-2" d="M352.82,108.76V88.3h4.3a15.5,15.5,0,0,1,4.87.61,9.17,9.17,0,0,1,3.49,2,10.58,10.58,0,0,1-.14,15.22,9.63,9.63,0,0,1-3.47,2,15.77,15.77,0,0,1-4.81.57Zm3.09-2.9h1.39a11.65,11.65,0,0,0,3.46-.44,7,7,0,0,0,4.77-6.89,7.1,7.1,0,0,0-2.25-5.46q-2-1.87-6-1.87h-1.39Z"/><path class="cls-2" d="M392,91.2h-8.2v4.92h8V99h-8v6.84H392v2.9H380.67V88.3H392Z"/><path class="cls-2" d="M404.16,108.76V86.91l14.92,15.61V88.3h3.08V110L407.24,94.44v14.32Z"/><path class="cls-2" d="M440.85,91.2v17.56h-3.08V91.2h-4.71V88.3h12.49v2.9Z"/><path class="cls-2" d="M467.35,103.79h-8.76l-2.28,5H453L463.11,87l9.77,21.75H469.5Zm-1.26-2.9-3-7-3.18,7Z"/><path class="cls-2" d="M486.66,88.3v17.56h6v2.9h-9.1V88.3Z"/><path class="cls-2" d="M50.51,95.32c8.42-10,17.79-18.09,29.89-23,14-5.75,29.82-14.19,37.39-28C124.5,32.1,123.7,16.5,110,9.61c-7.78-3.9-13.21-2-20.28,1.83a56.1,56.1,0,0,1-26.76,7.25c6.31,1.93,13.27,3.19,19.86,2.51,5.32-.55,9-3.56,13.93-4.65,12.16-2.68,13.7,12,10.39,20.47C97.08,62.55,49.31,62.94,50.51,95.32Z"/><path class="cls-3" d="M47.21,25.49c10.07,5.19,23.23,5.6,33.81,1.93-9.43-.13-19.88-2.77-26.88-9.39C47.93,12.14,42.86,3.34,32.88,4.09,17.45,5.24,12.63,26.21,12,38.23c-1.14,21.87,6.49,47,16.81,65.93,1.52,2.78,3.78,7.51,6.7,11.17a10.4,10.4,0,0,1,15.7-.47c3.9-5.79,7-14.49,6.21-17.76-6.09,6.22-11.45,18.76-18.77,6.56-5.89-9.83-9.63-21.43-12-32.57-2.75-12.89-4.46-27.46,0-40.19S37.44,19.59,47.21,25.49Z"/><path class="cls-3" d="M49.25,117.43a7.25,7.25,0,1,0,1.56,4.49A7.24,7.24,0,0,0,49.25,117.43Zm-5.69,8.4a3.91,3.91,0,1,1,3.9-3.91A3.9,3.9,0,0,1,43.56,125.83Z"/><path class="cls-3" d="M111.73,58.11c-1.9,1.24-4.29,2.46-5.88,4.06-2.74,2.78-1.91,6.51-2.23,10.39-.55,6.72-1.33,13.67-3.43,20.12-1,3-3.2,8.31-6.9,5.45-1.49-1.15-2.15-4.08-2.91-5.74-1.67-3.67-3.61-7.61-6.55-10.44-15.26-15.33-35.24-26.71-53.7-37.7C24.6,41,18.61,38,13.67,33.82,3.8,25.56-2.09,10.36,8.41,0,0,5.85-2.12,16.27,2.15,25.34c4.8,10.22,14.32,15,24,19.43C43.33,52.66,60.1,62.52,73.84,75.59c5.26,5,9.79,10.15,12,17.27,2.29,7.37.84,13.49.6,20.78a9.62,9.62,0,0,0,.25,2.82,8.16,8.16,0,0,1,7.31.88,22.1,22.1,0,0,0,3.7-2.75c6-5.45,9.68-12.85,11.89-20.52A87.43,87.43,0,0,0,111.73,58.11Z"/><path class="cls-3" d="M89.48,119.13a5,5,0,1,0,5,5A5,5,0,0,0,89.48,119.13Zm0,7.72a2.7,2.7,0,1,1,2.7-2.7A2.7,2.7,0,0,1,89.48,126.85Z"/></g></g></svg>